<?xml version="1.0" encoding="utf-8"?>
<!-- Generator: Adobe Illustrator 16.0.0, SVG Export Plug-In . SVG Version: 6.00 Build 0)  -->
<!DOCTYPE svg PUBLIC "-//W3C//DTD SVG 1.1//EN" "http://www.w3.org/Graphics/SVG/1.1/DTD/svg11.dtd">
<svg version="1.1" id="Layer_1" xmlns="http://www.w3.org/2000/svg" xmlns:xlink="http://www.w3.org/1999/xlink" x="0px" y="0px"
	 width="250px" height="250px" viewBox="0 0 250 250" enable-background="new 0 0 250 250" xml:space="preserve">
<polygon fill="#888888" points="143,10.467 143,0 103.563,0 93,0 93,10.467 93,59.318 93,69.785 93,119.506 93,120.027 93,130.494 
	93,178.823 93,189.291 93,239.532 93,250 103.563,250 143,250 143,239.532 103.563,239.532 103.563,189.291 143,189.291 
	143,178.823 103.563,178.823 103.563,130.494 143,130.494 143,120.027 103.563,120.027 103.563,119.506 103.563,69.785 143,69.785 
	143,59.318 103.563,59.318 103.563,10.467 "/>
</svg>
