<?xml version="1.0" encoding="utf-8"?>
<!-- Generator: Adobe Illustrator 16.0.3, SVG Export Plug-In . SVG Version: 6.00 Build 0)  -->
<!DOCTYPE svg PUBLIC "-//W3C//DTD SVG 1.1//EN" "http://www.w3.org/Graphics/SVG/1.1/DTD/svg11.dtd">
<svg version="1.1" id="Layer_1" xmlns="http://www.w3.org/2000/svg" xmlns:xlink="http://www.w3.org/1999/xlink" x="0px" y="0px"
	 width="250px" height="250px" viewBox="-85 0 250 250" enable-background="new -85 0 250 250" xml:space="preserve">
<path fill="#888888" d="M80,7.283V0.001h-0.001V0h-7.36v0.001H7.362V0H0v242.719h0.001V250H80v-7.281h-0.001L80,7.283L80,7.283z
	 M7.362,77.81l65.277,17.299v3.482L7.362,115.891V77.81z M7.362,135.256l65.277,17.299v3.482L7.362,173.338V135.256z M7.362,192.701
	L72.639,210v3.482L7.362,230.783V192.701z M72.639,202.464L7.362,185.163v-4.287l65.277-17.301V202.464z M72.639,145.018
	l-65.277-17.3v-4.288l65.277-17.3V145.018z M72.639,87.572L7.362,70.272v-4.289l65.277-17.299V87.572z M72.639,41.146l-65.277,17.3
	V20.364l65.277,17.3V41.146z M7.362,242.719v-4.397l65.277-17.301v21.698H7.362z M72.639,30.126l-65.277-17.3V7.283h65.277V30.126z"
	/>
</svg>
