<?xml version="1.0" encoding="utf-8"?>
<!-- Generator: Adobe Illustrator 16.0.3, SVG Export Plug-In . SVG Version: 6.00 Build 0)  -->
<!DOCTYPE svg PUBLIC "-//W3C//DTD SVG 1.1//EN" "http://www.w3.org/Graphics/SVG/1.1/DTD/svg11.dtd">
<svg version="1.1" id="Layer_1" xmlns="http://www.w3.org/2000/svg" xmlns:xlink="http://www.w3.org/1999/xlink" x="0px" y="0px"
	 width="841.89px" height="595.28px" viewBox="0 0 841.89 595.28" enable-background="new 0 0 841.89 595.28" xml:space="preserve">
<g>
	<polyline fill="none" stroke="#A7A9AC" stroke-width="0.6478" points="141.286,514.364 141.286,368.391 118.371,364.997 
		118.371,228.355 142.135,223.603 287.261,223.603 293.99,201.108 427.295,201.196 433.237,223.264 433.237,77.288 436.631,56.069 
		572.421,56.069 577.042,77.309 576.926,223.759 581.759,201.196 716.701,201.196 721.793,224.112 721.793,370.089 718.397,391.306 
		583.454,391.306 574.969,368.788 432.389,368.788 426.791,389.86 291.392,389.607 287.148,368.391 287.261,514.364 
		287.174,514.759 	"/>
	<polyline fill="none" stroke="#A7A9AC" stroke-width="0.6478" points="287.42,514.566 282.169,536.773 148.075,536.773 
		141.286,514.364 	"/>
	
		<line fill="none" stroke="#A7A9AC" stroke-width="0.6478" stroke-dasharray="3.8871,3.8871" x1="143.237" y1="514.283" x2="286.527" y2="514.536"/>
	
		<line fill="none" stroke="#A7A9AC" stroke-width="0.6478" stroke-dasharray="3.8871,3.8871" x1="287.261" y1="369.577" x2="287.261" y2="223.603"/>
	
		<line fill="none" stroke="#A7A9AC" stroke-width="0.6478" stroke-dasharray="3.8871,3.8871" x1="432.389" y1="368.729" x2="432.389" y2="224.452"/>
	<polyline fill="none" stroke="#A7A9AC" stroke-width="0.6478" points="432.389,368.788 426.785,390.027 290.852,389.822 
		287.148,368.391 	"/>
	<polyline fill="none" stroke="#A7A9AC" stroke-width="0.6478" points="721.793,369.577 718.397,390.795 582.414,391.101 
		574.969,368.729 	"/>
	<polyline fill="none" stroke="#A7A9AC" stroke-width="0.6478" points="141.286,368.391 118.205,365.058 118.371,227.846 
		142.135,223.603 	"/>
	<polyline fill="none" stroke="#A7A9AC" stroke-width="0.6478" points="286.816,223.646 293.606,200.731 427.7,200.731 
		433.237,223.242 	"/>
	<polyline fill="none" stroke="#A7A9AC" stroke-width="0.6478" points="433.237,76.778 436.631,55.561 572.421,55.561 
		576.926,76.629 	"/>
	<polyline fill="none" stroke="#A7A9AC" stroke-width="0.6478" points="576.926,223.533 581.759,200.688 716.701,200.688 
		721.68,223.362 	"/>
	
		<line fill="none" stroke="#A7A9AC" stroke-width="0.6478" stroke-dasharray="3.8871,3.8871" x1="576.263" y1="365.098" x2="576.263" y2="220.819"/>
	
		<line fill="none" stroke="#A7A9AC" stroke-width="0.6478" stroke-dasharray="3.8871,3.8871" x1="141.414" y1="368.608" x2="142.135" y2="223.603"/>
	
		<line fill="none" stroke="#A7A9AC" stroke-width="0.6478" stroke-dasharray="3.8871,3.8871" x1="286.413" y1="223.603" x2="721.793" y2="223.603"/>
	
		<line fill="none" stroke="#A7A9AC" stroke-width="0.6478" stroke-dasharray="3.8871,3.8871" x1="433.237" y1="76.778" x2="577.042" y2="76.799"/>
	
		<line fill="none" stroke="#A7A9AC" stroke-width="0.6478" stroke-dasharray="3.8871,3.8871" x1="141.455" y1="368.446" x2="722.813" y2="368.446"/>
	<path fill="#FFFFFF" d="M0-0.002v595.281h841.89V-0.002H0z M730.605,399.125H570.912v-19.21H442.074v18.504H299.129v149.34H133.087
		V379.915h-21.803V214.322h21.803H282.38v-22.161h143.412V47.522h161.466v144.639h143.348V399.125z"/>
	
		<text transform="matrix(1 0 0 1 42.5195 55.5605)" fill="#174E6B" font-family="'Baloo-Regular'" font-size="20" letter-spacing="10">MINIMALISM</text>
	<g>
		<polygon fill="#174E6B" points="708.717,539.209 657.691,539.209 657.691,513.697 708.717,513.697 708.717,539.209 		"/>
		<polygon fill="#174E6B" points="799.143,539.209 722.889,539.209 722.889,522.201 799.143,522.201 799.143,539.209 		"/>
		<polygon fill="#174E6B" points="661.396,552.576 659.189,548.853 659.189,552.576 657.691,552.576 657.691,546.346 
			659.217,546.346 661.434,550.142 661.434,546.346 662.926,546.346 662.926,552.576 661.396,552.576 		"/>
		<path fill="#174E6B" d="M666.617,547.828l-0.766,2.631h1.578L666.617,547.828L666.617,547.828z M668.092,552.576l-0.307-0.997
			h-2.297l-0.309,0.997h-1.658l2.313-6.23h1.623l2.295,6.23H668.092L668.092,552.576z"/>
		<polygon fill="#174E6B" points="672.434,547.572 672.434,552.576 670.863,552.576 670.863,547.572 669.238,547.572 
			669.238,546.346 674.049,546.346 674.049,547.572 672.434,547.572 		"/>
		<polygon fill="#174E6B" points="674.789,552.576 674.789,546.346 676.342,546.346 676.342,552.576 674.789,552.576 		"/>
		<path fill="#174E6B" d="M680.434,551.438c1.154,0,1.572-1.076,1.572-1.95c0-1.131-0.496-2.029-1.598-2.029
			c-1.184,0-1.545,1.12-1.545,1.96C678.863,550.414,679.314,551.438,680.434,551.438L680.434,551.438z M680.408,546.15
			c2.268,0,3.156,1.873,3.156,3.354c0,1.669-1.139,3.257-3.139,3.257c-2.059,0-3.1-1.614-3.1-3.326
			C677.326,548.015,678.156,546.15,680.408,546.15L680.408,546.15z"/>
		<polygon fill="#174E6B" points="688.053,552.576 685.848,548.853 685.848,552.576 684.348,552.576 684.348,546.346 
			685.875,546.346 688.088,550.142 688.088,546.346 689.58,546.346 689.58,552.576 688.053,552.576 		"/>
		<path fill="#174E6B" d="M693.398,547.828l-0.766,2.631h1.58L693.398,547.828L693.398,547.828z M694.875,552.576l-0.311-0.997
			h-2.295l-0.309,0.997h-1.656l2.311-6.23h1.623l2.295,6.23H694.875L694.875,552.576z"/>
		<polygon fill="#174E6B" points="697.221,552.576 697.221,546.346 698.771,546.346 698.771,551.262 701.209,551.262 
			701.209,552.576 697.221,552.576 		"/>
		<path fill="#174E6B" d="M708.713,548.289c-0.221-0.451-0.74-0.886-1.455-0.886c-0.998,0-1.627,0.742-1.627,2.015
			c0,0.74,0.223,2.046,1.635,2.046c0.564,0,1.305-0.274,1.357-1.165h-1.393v-1.182h2.709v3.459h-1.219v-0.574
			c-0.758,0.689-1.482,0.716-1.836,0.716c-1.932,0-2.805-1.678-2.805-3.257c0-1.482,0.865-3.327,3.07-3.327
			c1.65,0,2.48,1.103,2.746,1.438L708.713,548.289L708.713,548.289z"/>
		<path fill="#174E6B" d="M713.682,547.828l-0.768,2.631h1.578L713.682,547.828L713.682,547.828z M715.154,552.576l-0.309-0.997
			h-2.295l-0.309,0.997h-1.658l2.313-6.23h1.623l2.295,6.23H715.154L715.154,552.576z"/>
		<polygon fill="#174E6B" points="717.564,552.576 717.564,546.346 719.117,546.346 719.117,551.262 721.551,551.262 
			721.551,552.576 717.564,552.576 		"/>
		<polygon fill="#174E6B" points="722.346,552.576 722.346,546.346 723.896,546.346 723.896,551.262 726.334,551.262 
			726.334,552.576 722.346,552.576 		"/>
		<polygon fill="#174E6B" points="727.127,546.346 731.732,546.346 731.732,547.554 728.68,547.554 728.68,548.684 731.529,548.684 
			731.529,549.867 728.68,549.867 728.68,551.35 732.006,551.35 732.006,552.576 727.127,552.576 727.127,546.346 		"/>
		<path fill="#174E6B" d="M734.436,549.196h1.289c0.889,0,0.932-0.671,0.932-0.864c0-0.812-0.652-0.831-0.922-0.831h-1.299V549.196
			L734.436,549.196z M735.822,546.346c0.924,0,2.389,0.238,2.389,2.02c0,1.061-0.598,1.483-1.277,1.722l1.438,2.489h-1.715
			l-1.242-2.225h-0.969v2.225h-1.574v-6.23H735.822L735.822,546.346z"/>
		<polygon fill="#174E6B" points="742.244,549.628 742.244,552.576 740.707,552.576 740.707,549.672 738.369,546.346 
			740.154,546.346 741.494,548.454 742.826,546.346 744.602,546.346 742.244,549.628 		"/>
		<path fill="#174E6B" d="M748.215,550.467c0.01,0.246,0.064,1.614,1.791,1.614c0.523,0,1.555-0.203,1.555-1.244
			c0-0.695-0.514-0.9-1.184-1.032l-0.563-0.114c-1.404-0.282-2.189-0.732-2.189-1.773c0-0.494,0.221-0.908,0.59-1.218
			c0.602-0.494,1.316-0.514,1.615-0.514c0.619,0,1.217,0.081,1.721,0.469c0.549,0.417,0.688,0.866,0.797,1.448l-0.842,0.053
			c0-0.354-0.191-1.323-1.604-1.323c-0.592,0-1.422,0.211-1.422,0.979c0,0.6,0.539,0.812,1.244,0.979l1.139,0.274
			c0.291,0.069,1.588,0.354,1.588,1.72c0,0.248-0.035,0.804-0.52,1.279c-0.346,0.337-0.908,0.671-1.969,0.671
			c-0.205,0-1.049-0.008-1.703-0.432c-0.828-0.54-0.908-1.457-0.936-1.72L748.215,550.467L748.215,550.467z"/>
		<polygon fill="#174E6B" points="753.848,552.576 753.848,546.346 754.686,546.346 754.686,552.576 753.848,552.576 		"/>
		<path fill="#174E6B" d="M760.393,552.576l-3.414-5.065c0,0,0.078,4.941,0.078,5.065h-0.785v-6.23h0.785l3.369,4.994
			c0,0-0.033-4.801-0.033-4.994h0.75v6.23H760.393L760.393,552.576z"/>
		<path fill="#174E6B" d="M767.643,552.576v-0.873c-0.24,0.405-0.973,1.031-2.279,1.031c-1.852,0-3.094-1.313-3.094-3.194
			c0-2.108,1.4-3.354,3.211-3.354c0.998,0,2.248,0.39,2.885,1.81l-0.865,0.222c-0.264-0.847-1.014-1.341-1.996-1.341
			c-1.604,0-2.318,1.289-2.318,2.568c0,1.781,1.109,2.566,2.303,2.566c1.146,0,2.154-0.706,2.154-1.94v-0.089h-2.172v-0.697h2.895
			v3.292H767.643L767.643,552.576z"/>
		<path fill="#174E6B" d="M772.189,547.37l-0.955,2.603h1.861L772.189,547.37L772.189,547.37z M774.023,552.576l-0.682-1.907h-2.371
			l-0.697,1.907h-0.883l2.373-6.23h0.863l2.27,6.23H774.023L774.023,552.576z"/>
		<path fill="#174E6B" d="M778.729,549.196c0.66,0,1.119-0.354,1.119-1.112c0-0.733-0.477-1.022-1.111-1.022h-2.01v2.135H778.729
			L778.729,549.196z M778.877,546.346c1.207,0,1.791,0.778,1.791,1.757c0,0.864-0.469,1.834-1.816,1.834h-2.125v2.64h-0.807v-6.23
			H778.877L778.877,546.346z"/>
		<path fill="#174E6B" d="M784.494,552.081c1.238,0,2.215-0.829,2.215-2.673c0-1.236-0.555-2.55-2.23-2.55
			c-1.652,0-2.24,1.307-2.24,2.603C782.238,551.065,783.092,552.081,784.494,552.081L784.494,552.081z M784.451,552.734
			c-1.615,0-3.115-1.049-3.115-3.28c0-2.278,1.545-3.269,3.143-3.269c1.895,0,3.133,1.335,3.133,3.223
			C787.611,550.925,786.779,552.734,784.451,552.734L784.451,552.734z"/>
		<path fill="#174E6B" d="M791.256,549.231c0.717,0,1.359-0.212,1.359-1.066c0-0.699-0.449-1.13-1.244-1.13h-1.951v2.196H791.256
			L791.256,549.231z M792.73,552.576l-1.701-2.647h-1.609v2.647h-0.809v-6.23h2.805c1.191,0,2.021,0.565,2.021,1.819
			c0,0.757-0.326,1.525-1.465,1.71l1.748,2.701H792.73L792.73,552.576z"/>
		<polygon fill="#174E6B" points="794.746,552.576 794.746,546.346 799.037,546.346 799.037,547.078 795.541,547.078 
			795.541,549.003 798.576,549.003 798.576,549.727 795.541,549.727 795.541,551.852 799.143,551.852 799.143,552.576 
			794.746,552.576 		"/>
	</g>
</g>
<g>
	<rect x="578.437" y="271.699" fill="#FFFFFF" width="141.731" height="42.52"/>
	<g>
		<path fill="#010101" d="M595.395,293.044c0-0.104-0.034-0.185-0.103-0.241c-0.067-0.057-0.191-0.117-0.371-0.181
			c-0.372-0.118-0.649-0.243-0.83-0.378c-0.179-0.135-0.269-0.329-0.269-0.583c0-0.247,0.106-0.448,0.321-0.601
			s0.485-0.229,0.815-0.229c0.327,0,0.596,0.084,0.805,0.252s0.309,0.385,0.304,0.65l-0.004,0.012h-0.667
			c0-0.117-0.038-0.213-0.119-0.286c-0.08-0.073-0.189-0.11-0.33-0.11c-0.138,0-0.245,0.029-0.324,0.091s-0.117,0.136-0.117,0.225
			c0,0.087,0.039,0.156,0.118,0.208s0.228,0.117,0.445,0.195c0.335,0.1,0.587,0.223,0.758,0.369
			c0.169,0.146,0.254,0.347,0.254,0.602c0,0.26-0.101,0.464-0.304,0.609c-0.203,0.147-0.471,0.221-0.804,0.221
			c-0.336,0-0.625-0.084-0.87-0.252c-0.244-0.168-0.362-0.41-0.356-0.727l0.003-0.013h0.669c0,0.17,0.046,0.292,0.137,0.365
			c0.092,0.073,0.232,0.109,0.418,0.109c0.142,0,0.248-0.028,0.318-0.086C595.36,293.21,595.395,293.136,595.395,293.044"/>
		<path fill="#010101" d="M600.533,292.816v1.011h-0.688v-2.951h1.197c0.352,0,0.629,0.089,0.834,0.268
			c0.206,0.18,0.309,0.414,0.309,0.703c0,0.291-0.103,0.523-0.309,0.702c-0.205,0.178-0.482,0.268-0.834,0.268H600.533z
			 M600.533,292.289h0.51c0.148,0,0.263-0.042,0.341-0.122c0.076-0.083,0.116-0.188,0.116-0.316c0-0.131-0.04-0.238-0.116-0.322
			c-0.078-0.084-0.192-0.126-0.341-0.126h-0.51V292.289z"/>
		<path fill="#010101" d="M607.582,293.252h-0.932l-0.166,0.574h-0.69l0.953-2.951h0.736l0.957,2.951h-0.691L607.582,293.252z
			 M606.803,292.725h0.627l-0.308-1.055h-0.013L606.803,292.725z"/>
		<path fill="#010101" d="M614.398,292.792l0.005,0.012c-0.014,0.346-0.116,0.609-0.308,0.793c-0.191,0.183-0.469,0.273-0.832,0.273
			c-0.366,0-0.662-0.112-0.892-0.336c-0.228-0.225-0.342-0.517-0.342-0.875v-0.615c0-0.357,0.11-0.648,0.329-0.873
			c0.22-0.225,0.506-0.338,0.857-0.338c0.372,0,0.658,0.094,0.854,0.281c0.197,0.188,0.31,0.456,0.335,0.801l-0.003,0.014h-0.667
			c-0.011-0.193-0.054-0.335-0.129-0.429c-0.077-0.093-0.207-0.14-0.391-0.14c-0.155,0-0.278,0.063-0.367,0.188
			s-0.133,0.289-0.133,0.491v0.62c0,0.205,0.047,0.369,0.146,0.496c0.097,0.125,0.23,0.188,0.401,0.188
			c0.164,0,0.282-0.043,0.35-0.132c0.068-0.088,0.108-0.228,0.118-0.419H614.398z"/>
		<polygon fill="#010101" points="620.137,292.563 618.979,292.563 618.979,293.299 620.344,293.299 620.344,293.827 
			618.292,293.827 618.292,290.875 620.347,290.875 620.347,291.402 618.979,291.402 618.979,292.037 620.137,292.037 		"/>
		<rect x="625.119" y="292.063" fill="#010101" width="0.685" height="0.576"/>
		<polygon fill="#010101" points="631.252,293.299 632.522,293.299 632.522,293.827 630.564,293.827 630.564,290.875 
			631.252,290.875 		"/>
		<rect x="637.993" y="290.875" fill="#010101" width="0.683" height="2.951"/>
		<path fill="#010101" d="M646.318,293.419c-0.1,0.119-0.246,0.224-0.437,0.315c-0.19,0.09-0.43,0.135-0.718,0.135
			c-0.365,0-0.661-0.112-0.888-0.336c-0.229-0.225-0.343-0.516-0.343-0.875v-0.615c0-0.355,0.11-0.646,0.334-0.872
			c0.222-0.226,0.508-0.339,0.858-0.339c0.379,0,0.664,0.088,0.854,0.264s0.297,0.416,0.323,0.72l-0.006,0.012h-0.642
			c-0.023-0.155-0.073-0.272-0.151-0.351c-0.077-0.078-0.197-0.117-0.355-0.117c-0.159,0-0.288,0.063-0.386,0.189
			c-0.098,0.126-0.146,0.289-0.146,0.489v0.62c0,0.205,0.048,0.371,0.145,0.496c0.095,0.125,0.229,0.188,0.402,0.188
			c0.126,0,0.224-0.01,0.296-0.031c0.072-0.02,0.129-0.046,0.171-0.08v-0.467h-0.465v-0.453h1.152V293.419z"/>
		<polygon fill="#010101" points="653.148,293.827 652.465,293.827 652.465,292.639 651.371,292.639 651.371,293.827 
			650.685,293.827 650.685,290.875 651.371,290.875 651.371,292.112 652.465,292.112 652.465,290.875 653.148,290.875 		"/>
		<polygon fill="#010101" points="659.827,291.402 659.049,291.402 659.049,293.827 658.361,293.827 658.361,291.402 
			657.589,291.402 657.589,290.875 659.827,290.875 		"/>
		<rect x="664.475" y="292.063" fill="#010101" width="0.684" height="0.576"/>
		<path fill="#010101" d="M672.314,292.618c0,0.363-0.115,0.662-0.346,0.898c-0.231,0.235-0.532,0.354-0.903,0.354
			c-0.375,0-0.678-0.118-0.911-0.354c-0.231-0.236-0.348-0.535-0.348-0.898v-0.532c0-0.362,0.116-0.661,0.348-0.897
			c0.232-0.237,0.534-0.355,0.907-0.355c0.371,0,0.672,0.118,0.903,0.355c0.233,0.236,0.35,0.535,0.35,0.897V292.618z
			 M671.632,292.082c0-0.211-0.051-0.384-0.15-0.519c-0.098-0.136-0.238-0.203-0.42-0.203c-0.186,0-0.327,0.066-0.425,0.201
			s-0.146,0.309-0.146,0.521v0.536c0,0.212,0.049,0.387,0.149,0.522c0.1,0.135,0.24,0.202,0.426,0.202
			c0.18,0,0.318-0.067,0.418-0.202c0.098-0.136,0.148-0.311,0.148-0.522V292.082z"/>
		<path fill="#010101" d="M677.067,293.827v-2.951h1.014c0.367,0,0.652,0.068,0.856,0.203c0.206,0.137,0.31,0.338,0.31,0.607
			c0,0.141-0.034,0.266-0.1,0.375c-0.066,0.109-0.168,0.191-0.307,0.247c0.173,0.04,0.301,0.118,0.385,0.236
			c0.082,0.118,0.122,0.255,0.122,0.408c0,0.288-0.097,0.507-0.29,0.653s-0.47,0.221-0.83,0.221H677.067z M677.755,292.106h0.342
			c0.153-0.004,0.27-0.033,0.346-0.09c0.079-0.059,0.117-0.143,0.117-0.253c0-0.126-0.039-0.217-0.119-0.274
			c-0.076-0.059-0.197-0.087-0.359-0.087h-0.326V292.106z M677.755,292.559v0.74h0.473c0.146,0,0.255-0.028,0.327-0.086
			c0.073-0.057,0.111-0.145,0.111-0.264c0-0.129-0.032-0.226-0.095-0.291c-0.064-0.066-0.164-0.1-0.307-0.1H677.755z"/>
		<path fill="#010101" d="M684.81,290.853h0.683v2.026c0,0.297-0.097,0.533-0.292,0.707s-0.44,0.262-0.734,0.262
			c-0.318,0-0.573-0.076-0.759-0.23s-0.275-0.383-0.271-0.684l0.007-0.012h0.668c0,0.143,0.034,0.244,0.101,0.307
			c0.065,0.061,0.15,0.092,0.254,0.092c0.095,0,0.174-0.038,0.241-0.115c0.067-0.078,0.103-0.186,0.103-0.326V290.853z"/>
		<polygon fill="#010101" points="692.088,292.563 690.931,292.563 690.931,293.299 692.295,293.299 692.295,293.827 
			690.243,293.827 690.243,290.875 692.3,290.875 692.3,291.402 690.931,291.402 690.931,292.037 692.088,292.037 		"/>
		<path fill="#010101" d="M698.826,292.792l0.005,0.012c-0.014,0.346-0.116,0.609-0.307,0.793c-0.191,0.183-0.47,0.273-0.833,0.273
			c-0.365,0-0.661-0.112-0.892-0.336c-0.227-0.225-0.342-0.517-0.342-0.875v-0.615c0-0.357,0.11-0.648,0.331-0.873
			c0.218-0.225,0.505-0.338,0.855-0.338c0.373,0,0.659,0.094,0.854,0.281c0.199,0.188,0.311,0.456,0.336,0.801l-0.004,0.014h-0.667
			c-0.009-0.193-0.054-0.335-0.13-0.429c-0.076-0.093-0.206-0.14-0.39-0.14c-0.155,0-0.277,0.063-0.367,0.188
			c-0.089,0.125-0.134,0.289-0.134,0.491v0.62c0,0.205,0.049,0.369,0.147,0.496c0.096,0.125,0.229,0.188,0.4,0.188
			c0.164,0,0.281-0.043,0.352-0.132c0.067-0.088,0.107-0.228,0.116-0.419H698.826z"/>
		<polygon fill="#010101" points="704.856,291.402 704.077,291.402 704.077,293.827 703.39,293.827 703.39,291.402 702.617,291.402 
			702.617,290.875 704.856,290.875 		"/>
		<rect x="605.628" y="294.835" fill="#9B9B9B" width="0.493" height="5.727"/>
		<rect x="593.747" y="294.835" fill="#9B9B9B" width="0.494" height="5.727"/>
		<polygon fill="#9B9B9B" points="599.725,300.563 600.117,300.563 602.442,294.835 601.94,294.835 599.944,299.777 599.89,299.777 
			597.9,294.835 597.401,294.835 		"/>
		<rect x="610.883" y="294.835" fill="#9B9B9B" width="0.493" height="5.727"/>
		<rect x="616.139" y="294.835" fill="#9B9B9B" width="0.501" height="5.727"/>
		<polygon fill="#9B9B9B" points="625.217,300.563 625.709,300.563 625.709,294.835 625.217,294.835 625.217,299.604 
			625.161,299.623 621.856,294.835 621.271,294.835 		"/>
		<rect x="630.473" y="294.835" fill="#9B9B9B" width="0.492" height="5.727"/>
		<rect x="635.728" y="294.835" fill="#9B9B9B" width="0.492" height="5.727"/>
		<polygon fill="#9B9B9B" points="641.703,300.563 642.096,300.563 644.421,294.835 643.918,294.835 641.922,299.777 
			641.868,299.777 639.879,294.835 639.38,294.835 		"/>
		<rect x="647.607" y="294.835" fill="#9B9B9B" width="0.491" height="5.727"/>
		<polygon fill="#9B9B9B" points="653.819,294.835 653.285,294.835 651.146,300.563 651.684,300.563 653.163,296.593 
			659.659,296.593 661.146,300.563 661.685,300.563 659.541,294.835 659.006,294.835 659.478,296.1 653.346,296.1 		"/>
		<polygon fill="#9B9B9B" points="664.566,294.835 664.566,300.563 671.885,300.563 671.885,300.068 665.068,300.068 
			665.068,294.835 		"/>
		<rect x="675.325" y="294.835" fill="#9B9B9B" width="0.493" height="5.727"/>
		<path fill="#9B9B9B" d="M688.554,297.377c0,0.852-0.376,1.546-1.127,2.082c-0.75,0.535-1.711,0.803-2.879,0.803
			c-1.162,0-2.186-0.271-3.074-0.818c-0.889-0.543-1.332-1.417-1.332-2.623h-0.41l-0.02,0.056c-0.029,1.338,0.436,2.319,1.396,2.942
			c0.961,0.625,2.108,0.936,3.439,0.936c1.291,0,2.364-0.303,3.222-0.908c0.858-0.605,1.286-1.433,1.286-2.486
			c0-1.034-0.375-1.832-1.127-2.396c-0.059-0.044-0.123-0.087-0.187-0.129h-0.985c0.356,0.175,0.65,0.356,0.881,0.544
			C688.248,295.879,688.554,296.543,688.554,297.377"/>
		<rect x="692.484" y="294.835" fill="#9B9B9B" width="0.493" height="5.727"/>
		<polygon fill="#9B9B9B" points="698.462,300.563 698.854,300.563 701.18,294.835 700.678,294.835 698.681,299.777 
			698.626,299.777 696.637,294.835 696.137,294.835 		"/>
		<rect x="704.364" y="294.835" fill="#9B9B9B" width="0.494" height="5.727"/>
		<polygon fill="#9B9B9B" points="606.12,289.937 606.12,285.355 605.398,285.355 603.548,289.937 604.057,289.937 605.571,286.204 
			605.627,286.221 605.627,289.937 		"/>
		<polygon fill="#9B9B9B" points="594.449,285.355 593.747,285.355 593.747,289.937 594.241,289.937 594.241,286.286 
			594.294,286.268 595.784,289.937 596.293,289.937 		"/>
		<rect x="610.882" y="285.355" fill="#9B9B9B" width="0.492" height="4.582"/>
		<polygon fill="#9B9B9B" points="616.639,285.355 616.137,285.355 616.137,289.937 616.639,289.937 616.639,286.286 
			616.692,286.268 619.222,289.937 619.801,289.937 		"/>
		<rect x="625.216" y="285.355" fill="#9B9B9B" width="0.491" height="4.582"/>
		<rect x="630.471" y="285.355" fill="#9B9B9B" width="0.492" height="4.582"/>
		<polygon fill="#9B9B9B" points="636.427,285.355 635.727,285.355 635.727,289.937 636.219,289.937 636.219,286.286 
			636.273,286.268 637.762,289.937 638.272,289.937 		"/>
		<polygon fill="#9B9B9B" points="648.098,289.937 648.098,285.355 647.377,285.355 645.526,289.937 646.036,289.937 
			647.55,286.204 647.605,286.221 647.605,289.937 		"/>
		<polygon fill="#9B9B9B" points="656.106,285.355 654.536,289.937 655.103,289.937 656.136,286.696 656.383,285.948 
			656.437,285.948 656.691,286.696 657.721,289.937 658.286,289.937 656.711,285.355 		"/>
		<rect x="664.564" y="285.355" fill="#9B9B9B" width="0.503" height="4.582"/>
		<rect x="675.323" y="285.355" fill="#9B9B9B" width="0.492" height="4.582"/>
		<path fill="#9B9B9B" d="M681.623,286.463c0.703-0.539,1.655-0.807,2.86-0.807c1.162,0,2.107,0.324,2.838,0.976
			c0.729,0.651,1.094,1.472,1.094,2.464h0.42l0.019-0.055c0.024-1.137-0.373-2.068-1.194-2.792s-1.881-1.087-3.176-1.087
			c-1.283,0-2.339,0.296-3.166,0.886s-1.242,1.38-1.242,2.372c0,0.59,0.127,1.094,0.372,1.517h0.657
			c-0.355-0.435-0.535-0.944-0.535-1.534C680.569,287.649,680.92,287.002,681.623,286.463"/>
		<polygon fill="#9B9B9B" points="702.285,289.937 702.793,289.937 704.31,286.204 704.364,286.221 704.364,289.937 
			704.856,289.937 704.856,285.355 704.137,285.355 		"/>
		<polygon fill="#9B9B9B" points="693.188,285.355 692.483,285.355 692.483,289.937 692.976,289.937 692.976,286.286 
			693.031,286.268 694.521,289.937 695.03,289.937 		"/>
	</g>
</g>
</svg>
