<?xml version="1.0" encoding="utf-8"?>
<!-- Generator: Adobe Illustrator 24.2.3, SVG Export Plug-In . SVG Version: 6.00 Build 0)  -->
<svg version="1.1" id="Layer_1" xmlns="http://www.w3.org/2000/svg" xmlns:xlink="http://www.w3.org/1999/xlink" x="0px" y="0px"
	 viewBox="0 0 2160 372" style="enable-background:new 0 0 2160 372;" xml:space="preserve">
<style type="text/css">
	.st0{fill:#DC7D29;}
	.st1{fill:#90A65B;}
	.st2{fill:#4E6BA4;}
	.st3{fill:#478B97;}
	.st4{fill:#9A5F92;}
	.st5{fill:#F4F3F3;}
</style>
<g>
	<rect y="0" class="st0" width="2160" height="372"/>
	<path class="st1" d="M2160,174.6v-71.9c-1.2-1.3-2.3-2.5-3.5-3.8c-41.9-42-93.1-73.4-149-98.9h-289.9h-259.4h-68.3H1100
		c30.2,86.7,106.3,152.9,198,203.4c37,20.4,76.5,38.2,116.5,53.8c12.5,4.5,22.2,12.1,29.2,21.3c5.6,7.3,9.4,15.8,11.4,24.6
		c5.7,24.6-2.4,52.4-24.6,68.9H2160v-36.4V174.6z"/>
	<path class="st2" d="M587.9,0H332.8c-6.9,6.2-13.5,13-19.8,20.4C254.6,100.4,121.4,159,0,183.2V372h562.7h430.2
		c30.9-76.3,52.6-156.8,63.8-240.4c0-1.9,0-1.9,0-3.7c3.6-7.4,10.9-14.8,20-14.8c7.3,0,12.8,3.7,16.4,9.3c0,1.9,1.8,3.7,1.8,5.6
		c31,70.4,58.3,150.1,76.6,237.3l4.6-1l259.1-56.7l20-4.4l29.8-6.5c-7.2-34.6-15.5-68.2-24.7-100.8c-5-17.7-10.2-35-15.8-52.1
		c-16.2-50.4-34.7-98.3-54.7-143.7H1100H744.2c-2.2,54.3-9.3,106.2-21.1,155.7v3.7c-1.8,7.4-9.1,13-18.2,13
		c-10.9,0-18.2-9.3-20-18.5c0-1.8,0-1.8,0-1.8c-3.3-63-36.1-116.2-82.6-152H587.9z"/>
	<path class="st3" d="M587.9,0c-1.3,2.2-2.6,4.4-4,6.5C546.7,73.5,483.8,224.1,562.7,372h430.2h180.4h237.2
		c9.4-21.1,17.7-42.7,24.7-64.5c3.1-9.6,6-19.3,8.6-29c7.4-27.4,13-55.1,16.6-82.7c2.4-18.6,4-37.3,4.6-55.8
		c0.3-7.2,0.4-14.4,0.4-21.6c1-39.7-2.4-79.1-7.1-118.4h-68.3H1100H744.2H602.3H587.9z"/>
	<path class="st4" d="M1430.6,372H2160v-36.4c-72-43-142.9-78.6-221.1-115.2c-131.6-61.3-316-105.5-473.9-80.4
		c-6.8,1.1-13.7,2.3-20.4,3.7c-53.5,10.7-103.4,29.9-146.5,59.7c-52.8,36.4-95.4,88.7-122,160.8c-1,2.6-1.9,5.2-2.8,7.8h237.2
		H1430.6z"/>
	<path class="st5" d="M2160,0v174.6c-205.2,35.7-373.3-45.8-442.4-174.6H2160z"/>
</g>
</svg>
