<?xml version="1.0" encoding="utf-8"?>
<!-- Generator: Adobe Illustrator 24.2.3, SVG Export Plug-In . SVG Version: 6.00 Build 0)  -->
<svg version="1.1" id="Layer_1" xmlns="http://www.w3.org/2000/svg" xmlns:xlink="http://www.w3.org/1999/xlink" x="0px" y="0px"
	 viewBox="0 0 2156 372" style="enable-background:new 0 0 2156 372;" xml:space="preserve">
<style type="text/css">
	.st0{fill:#9A5F92;}
	.st1{fill:#478B97;}
	.st2{fill:#90A65B;}
	.st3{fill:#4E6BA4;}
	.st4{fill:#DC7D29;}
	.st5{fill:#F4F3F3;}
</style>
<g>
	<rect y="0" class="st0" width="2160" height="372"/>
	<path class="st1" d="M570.1,0H399.8H0v372h73.4h298.9h205.5h61.1c55.8-90.5,69.2-202.2,9.9-309.8C637.3,41.2,623,20.4,605.7,0
		H570.1z"/>
	<path class="st2" d="M2160,131.9V372h-779.3c60.3-63.2,124.7-122.9,197.4-174.7c59-49.6,129.7-87.2,203.6-109.5
		C1913.6,48.1,2055.7,56.8,2160,131.9z"/>
	<path class="st3" d="M0,0h399.8C321.7,146.5,209,273.6,73.4,372H0V0z"/>
	<path class="st4" d="M605.7,0h899.6c-15,39.2-38.9,75.6-72.2,106.5c-61.8,63.4-144.2,103.1-231.8,134.8
		c-59.2,21.1-59.2,105.7,0,126.9c3.5,1.3,7,2.6,10.5,3.8h-195.4H638.9h-61.1H372.3c-4.5-21.3-6.4-43.7-5.4-67.3
		C376.5,147.5,460.1,59,570.1,0H605.7z"/>
	<path class="st5" d="M2160,0v173.5c-0.8,0.1-1.6,0.1-2.5,0.2c-154.9,28.5-288.9-10.1-375.8-85.8c-29.2-25.5-53.1-55.1-70.5-87.9
		C1711.2,0,2160,0,2160,0z"/>
</g>
</svg>
