<?xml version="1.0" encoding="utf-8"?>
<!-- Generator: Adobe Illustrator 24.2.3, SVG Export Plug-In . SVG Version: 6.00 Build 0)  -->
<svg version="1.1" id="Capa_1" xmlns="http://www.w3.org/2000/svg" xmlns:xlink="http://www.w3.org/1999/xlink" x="0px" y="0px"
	 viewBox="0 0 512 512" style="enable-background:new 0 0 512 512;" xml:space="preserve">
<style type="text/css">
	.st0{fill:#FFFFFF;}
</style>
<g>
	<g>
		<path class="st0" d="M128,159.2H16c-7.1,0-13.4,4.7-15.4,11.6c-2,6.9,0.8,14.2,6.8,18C7.6,188.9,18.6,196,27,209
			C9.5,231.2,0,258.6,0,287.2c0,70.6,57.4,128,128,128s128-57.4,128-128S198.6,159.2,128,159.2z M128,383.2c-52.9,0-96-43.1-96-96
			c0-24.4,9.2-47.5,26-65.1c4.5-4.7,5.7-11.7,3-17.6c-2.2-4.8-4.7-9.2-7.3-13.2H128c52.9,0,96,43.1,96,96S180.9,383.2,128,383.2z"/>
	</g>
</g>
<g>
	<g>
		<path class="st0" d="M301.5,338.3c-7.1-5.2-17.1-3.7-22.4,3.6l-22.3,30.8l-24.4-31.2c-5.4-7-15.5-8.3-22.5-2.8
			c-6.9,5.4-8.2,15.5-2.8,22.5l37.4,48c3,3.9,7.7,6.1,12.6,6.1c0.1,0,0.2,0,0.3,0c5-0.1,9.7-2.5,12.6-6.6l34.8-48
			C310.2,353.5,308.7,343.5,301.5,338.3z"/>
	</g>
</g>
<g>
	<g>
		<path class="st0" d="M426.8,163.4c-97.3-88.9-244.2-88.9-341.6,0c-6.5,6-7,16.1-1,22.6c6,6.6,16.1,7,22.6,1
			c85.1-77.7,213.4-77.7,298.4,0c3.1,2.8,6.9,4.2,10.8,4.2c4.4,0,8.7-1.8,11.8-5.2C433.8,179.5,433.3,169.4,426.8,163.4z"/>
	</g>
</g>
<g>
	<g>
		<path class="st0" d="M128,223.2c-35.3,0-64,28.7-64,64s28.7,64,64,64s64-28.7,64-64S163.3,223.2,128,223.2z M128,319.2
			c-17.6,0-32-14.3-32-32c0-17.6,14.4-32,32-32s32,14.4,32,32C160,304.9,145.6,319.2,128,319.2z"/>
	</g>
</g>
<g>
	<g>
		<path class="st0" d="M128.6,271.2h-0.3c-8.8,0-15.8,7.2-15.8,16s7.3,16,16.2,16s16-7.2,16-16S137.5,271.2,128.6,271.2z"/>
	</g>
</g>
<g>
	<g>
		<path class="st0" d="M484.9,209c8.5-13,19.5-20.2,19.6-20.2c6-3.8,8.8-11.1,6.8-18c-2-6.8-8.2-11.6-15.4-11.6H384
			c-70.6,0-128,57.4-128,128s57.4,128,128,128s128-57.4,128-128C512,258.6,502.5,231.2,484.9,209z M384,383.2c-52.9,0-96-43.1-96-96
			s43.1-96,96-96h74.3c-2.7,4-5.2,8.4-7.3,13.2c-2.7,6-1.5,12.9,3,17.6c16.8,17.6,26,40.7,26,65.1C480,340.2,436.9,383.2,384,383.2z
			"/>
	</g>
</g>
<g>
	<g>
		<path class="st0" d="M384,223.2c-35.3,0-64,28.7-64,64s28.7,64,64,64s64-28.7,64-64S419.3,223.2,384,223.2z M384,319.2
			c-17.7,0-32-14.3-32-32c0-17.6,14.3-32,32-32s32,14.4,32,32C416,304.9,401.7,319.2,384,319.2z"/>
	</g>
</g>
<g>
	<g>
		<path class="st0" d="M384.6,271.2h-0.3c-8.8,0-15.8,7.2-15.8,16s7.4,16,16.2,16c8.8,0,16-7.2,16-16S393.5,271.2,384.6,271.2z"/>
	</g>
</g>
</svg>
